<?xml version="1.0" encoding="utf-8"?>
<!-- Generator: Adobe Illustrator 18.0.0, SVG Export Plug-In . SVG Version: 6.00 Build 0)  -->
<!DOCTYPE svg PUBLIC "-//W3C//DTD SVG 1.1//EN" "http://www.w3.org/Graphics/SVG/1.1/DTD/svg11.dtd">
<svg version="1.1" id="Layer_1" xmlns="http://www.w3.org/2000/svg" xmlns:xlink="http://www.w3.org/1999/xlink" x="0px" y="0px"
	 viewBox="0 0 400 400" enable-background="new 0 0 400 400" xml:space="preserve">
<path fill="#FFFFFF" d="M200,36.7c-95.8,0-173.5,77.7-173.5,173.5S104.2,383.8,200,383.8s173.5-77.7,173.5-173.5
	S295.8,36.7,200,36.7z M158.3,142.1l50.5,85.9H107.8L158.3,142.1z M131.7,299.6c-9.6,0.4-18.2-3.7-21.6-8.8
	C106.7,285.6,90,257,90,257h136.5l26.1,43.8L131.7,299.6z M309.5,262.8l-21.4,37.8L175.5,110c0,0,23.6,0,37.9,0
	c14.2,0,19.7,8.8,19.7,8.8s68.6,116.7,73.8,125.8C312.1,253.7,309.5,262.8,309.5,262.8z"/>
</svg>
