<?xml version="1.0" encoding="utf-8"?>
<!-- Generator: Adobe Illustrator 18.0.0, SVG Export Plug-In . SVG Version: 6.00 Build 0)  -->
<!DOCTYPE svg PUBLIC "-//W3C//DTD SVG 1.1//EN" "http://www.w3.org/Graphics/SVG/1.1/DTD/svg11.dtd">
<svg version="1.1"
	 id="svg2439" xmlns:cc="http://creativecommons.org/ns#" xmlns:svg="http://www.w3.org/2000/svg" xmlns:dc="http://purl.org/dc/elements/1.1/" xmlns:inkscape="http://www.inkscape.org/namespaces/inkscape" xmlns:rdf="http://www.w3.org/1999/02/22-rdf-syntax-ns#" xmlns:sodipodi="http://sodipodi.sourceforge.net/DTD/sodipodi-0.dtd"
	 xmlns="http://www.w3.org/2000/svg" xmlns:xlink="http://www.w3.org/1999/xlink" x="0px" y="0px" viewBox="0 0 1000 1000"
	 enable-background="new 0 0 1000 1000" xml:space="preserve">
<path fill="#FFFFFF" enable-background="new    " d="M173,253.3v493.4h654V253.3H173z M521.6,531.9c-4.9,4.9-12.4,7.7-20.7,7.7
	c-8.3,0-15.9-2.8-20.8-7.9L250.4,299H753L521.6,531.9z M383.9,499.2L218.7,668.1V331.7L383.9,499.2z M415.9,531.6l31.7,32.1
	c13.5,13.5,32.9,21.4,53.3,21.4s39.6-7.7,53-21.1l31.3-31.4l164.5,168.5H250.2L415.9,531.6z M617.3,500.2l164-165.1v333L617.3,500.2
	z"/>
</svg>
