<?xml version="1.0" encoding="utf-8"?>
<!-- Generator: Adobe Illustrator 18.0.0, SVG Export Plug-In . SVG Version: 6.00 Build 0)  -->
<!DOCTYPE svg PUBLIC "-//W3C//DTD SVG 1.1//EN" "http://www.w3.org/Graphics/SVG/1.1/DTD/svg11.dtd">
<svg version="1.1" xmlns="http://www.w3.org/2000/svg" xmlns:xlink="http://www.w3.org/1999/xlink" x="0px" y="0px"
	 viewBox="0 0 72.4 72.4" enable-background="new 0 0 72.4 72.4" xml:space="preserve">
<g id="Warstwa_2">
</g>
<g id="Warstwa_1">
	<g>
		<polygon fill="#FFFFFF" points="23.2,32 14.9,32 0.2,6.4 10.6,6.4 33.8,6.4 28.6,15.4 15.8,15.4 20.1,23 28.4,23 		"/>
		<polygon fill="#FFFFFF" points="72.1,6.4 62.5,23 57.3,32 41.3,59.7 36.1,68.7 30.9,59.7 36.1,50.7 46.9,32 38.2,32 31.8,43.1 
			26.6,52.1 21.4,43.1 26.6,34.1 37.4,15.4 42.6,6.4 52.9,6.4 47.8,15.4 43.4,23 52.1,23 56.5,15.4 61.7,6.4 		"/>
	</g>
</g>
</svg>
