<?xml version="1.0" encoding="utf-8"?>
<!-- Generator: Adobe Illustrator 18.0.0, SVG Export Plug-In . SVG Version: 6.00 Build 0)  -->
<!DOCTYPE svg PUBLIC "-//W3C//DTD SVG 1.1//EN" "http://www.w3.org/Graphics/SVG/1.1/DTD/svg11.dtd">
<svg version="1.1" xmlns="http://www.w3.org/2000/svg" xmlns:xlink="http://www.w3.org/1999/xlink" x="0px" y="0px"
	 viewBox="0 0 72.4 72.4" enable-background="new 0 0 72.4 72.4" xml:space="preserve">
<g id="Warstwa_2">
</g>
<g id="Warstwa_1">
	<polygon fill="#FFFFFF" points="41.4,59.3 57.4,31.6 62.6,22.6 72.1,6 61.7,6 56.5,15 52.2,22.6 43.4,22.6 47.8,15 53,6 42.6,6 
		37.4,15 33.1,22.6 24.3,22.6 20.2,22.6 15.8,15 28.7,15 33.9,6 10.6,6 0.2,6 15,31.6 25.4,31.6 25.4,31.6 27.9,31.6 26.6,33.7 
		26.6,33.7 21.4,42.7 26.6,51.7 31.8,42.7 38.2,31.6 47,31.6 36.2,50.3 31,59.3 36.2,68.3 	"/>
</g>
</svg>
