<?xml version="1.0" encoding="utf-8"?>
<!-- Generator: Adobe Illustrator 18.0.0, SVG Export Plug-In . SVG Version: 6.00 Build 0)  -->
<!DOCTYPE svg PUBLIC "-//W3C//DTD SVG 1.1//EN" "http://www.w3.org/Graphics/SVG/1.1/DTD/svg11.dtd">
<svg version="1.1" xmlns="http://www.w3.org/2000/svg" xmlns:xlink="http://www.w3.org/1999/xlink" x="0px" y="0px"
	 viewBox="0 0 36.5 36.5" enable-background="new 0 0 36.5 36.5" xml:space="preserve">
<g id="Warstwa_2">
</g>
<g id="Warstwa_1">
	<g>
		<rect x="28.4" y="26.1" fill="#FFFFFF" width="7.8" height="9.9"/>
		<path fill="#FFFFFF" d="M33.6,18.8c1.6-1.9,2.6-4.5,2.6-7.2c0-6.1-5-11.1-11.1-11.1H0.3l0,0l0,0V36h7.9l0,0H23v-7.9H8.2V8.4h16.9
			c1.8,0,3.3,1.7,3.3,3.5c0,1.8-1.5,3.5-3.3,3.5h-11v6.9h11c1.8,0,3.3,2,3.3,3.9h7.8C36.2,23.2,35.2,20.8,33.6,18.8z"/>
	</g>
</g>
</svg>
