<?xml version="1.0" encoding="utf-8"?>
<!-- Generator: Adobe Illustrator 18.0.0, SVG Export Plug-In . SVG Version: 6.00 Build 0)  -->
<!DOCTYPE svg PUBLIC "-//W3C//DTD SVG 1.1//EN" "http://www.w3.org/Graphics/SVG/1.1/DTD/svg11.dtd">
<svg version="1.1" xmlns="http://www.w3.org/2000/svg" xmlns:xlink="http://www.w3.org/1999/xlink" x="0px" y="0px"
	 viewBox="0 0 72.4 72.4" enable-background="new 0 0 72.4 72.4" xml:space="preserve">
<g id="Warstwa_2">
</g>
<g id="Warstwa_1">
	<polygon fill="#FFFFFF" points="66.7,57.3 50.7,29.6 45.5,20.6 36,4.1 30.8,13.1 36,22.1 40.3,29.6 36,37.2 31.6,29.6 26.4,20.6 
		21.2,29.6 26.4,38.6 30.8,46.2 26.4,53.7 24.3,57.3 15.6,57.3 22,46.2 16.8,37.2 5.2,57.3 0,66.3 29.5,66.3 34.7,57.3 34.7,57.3 
		36,55.2 37.2,57.3 37.2,57.3 42.4,66.3 52.8,66.3 47.6,57.3 41.1,46.2 45.5,38.6 56.3,57.3 61.5,66.3 71.9,66.3 	"/>
</g>
</svg>
