<?xml version="1.0" encoding="utf-8"?>
<!-- Generator: Adobe Illustrator 18.0.0, SVG Export Plug-In . SVG Version: 6.00 Build 0)  -->
<!DOCTYPE svg PUBLIC "-//W3C//DTD SVG 1.1//EN" "http://www.w3.org/Graphics/SVG/1.1/DTD/svg11.dtd">
<svg version="1.1" id="Warstwa_1" xmlns="http://www.w3.org/2000/svg" xmlns:xlink="http://www.w3.org/1999/xlink" x="0px" y="0px"
	 viewBox="0 0 1080 1080" enable-background="new 0 0 1080 1080" xml:space="preserve">
<g id="Warstwa_1_1_">
	<g>
		<rect x="840.3" y="772.3" width="230.8" height="292.9"/>
		<path d="M994.2,556.3c47.3-56.2,76.9-133.2,76.9-213c0-180.5-147.9-328.4-328.4-328.4H8.9l0,0l0,0v1050.4h233.8l0,0h437.9V831.5
			H242.6V248.5h500.1c53.3,0,97.6,50.3,97.6,103.6s-44.4,103.6-97.6,103.6H417.2v204.2h325.5c53.3,0,97.6,59.2,97.6,115.4h230.8
			C1071.1,686.5,1041.5,615.5,994.2,556.3z"/>
	</g>
</g>
</svg>
