<?xml version="1.0" encoding="utf-8"?>
<!-- Generator: Adobe Illustrator 18.0.0, SVG Export Plug-In . SVG Version: 6.00 Build 0)  -->
<!DOCTYPE svg PUBLIC "-//W3C//DTD SVG 1.1//EN" "http://www.w3.org/Graphics/SVG/1.1/DTD/svg11.dtd">
<svg version="1.1" xmlns="http://www.w3.org/2000/svg" xmlns:xlink="http://www.w3.org/1999/xlink" x="0px" y="0px"
	 viewBox="0 0 72.4 72.4" enable-background="new 0 0 72.4 72.4" xml:space="preserve">
<g id="Warstwa_2">
</g>
<g id="Warstwa_1">
	<path fill="#FFFFFF" d="M51.3,48.8c1.8-1,3.5-2.1,5.1-3.5c1.7-1.5,3.2-3.2,4.4-5.1c2.5-3.8,3.9-8.4,3.9-13.3
		c0-12.8-9.8-23.3-22.3-24.5c-0.8-0.1-1.5-0.1-2.3-0.1c-0.8,0-1.6,0-2.3,0.1H0v26.4v11.3V42v16v12.1h25.2h11.3h20h11.1h5L51.3,48.8z
		 M25.2,58.8H11.3V46.7v-6.6v-9.5v-1.9V13.7h7.8h19.1h3.4c6.5,0.8,11.6,6.4,11.6,13.2c0,6.7-5,12.3-11.5,13.2
		c-0.4,0-0.8,0.1-1.1,0.1h-1.3h-9.1h-4.1l5.4,5.4l5.1,5.1l0.7,0.7l0.1,0.1l7.3,7.3h-8.1H25.2z"/>
</g>
</svg>
