<?xml version="1.0" encoding="utf-8"?>
<!-- Generator: Adobe Illustrator 18.0.0, SVG Export Plug-In . SVG Version: 6.00 Build 0)  -->
<!DOCTYPE svg PUBLIC "-//W3C//DTD SVG 1.1//EN" "http://www.w3.org/Graphics/SVG/1.1/DTD/svg11.dtd">
<svg version="1.1" id="Слой_1" xmlns="http://www.w3.org/2000/svg" xmlns:xlink="http://www.w3.org/1999/xlink" x="0px" y="0px"
	 viewBox="0 0 32 32" enable-background="new 0 0 32 32" xml:space="preserve">
<g id="Group_Arrows">
	<path fill="#121313" stroke="#000000" stroke-miterlimit="10" d="M6.4,16c0.5,0,1-0.4,1-1V7.4h15.9l-3.1,3.2c-0.4,0.4-0.4,1,0,1.4
		c0.4,0.4,1,0.4,1.4,0l4.7-4.8c0.4-0.4,0.4-1,0-1.4l0,0l-4.7-4.8c-0.4-0.4-1-0.4-1.4,0s-0.4,1,0,1.4l3.1,3.1H6.4c-0.5,0-1,0.4-1,1
		V15C5.4,15.6,5.9,16,6.4,16z"/>
	<path fill="#121313" stroke="#000000" stroke-miterlimit="10" d="M25.6,16c-0.5,0-1,0.4-1,1v7.7h-16l3.2-3.2c0.4-0.4,0.4-1,0-1.4
		s-1-0.4-1.4,0l-4.7,4.8c-0.4,0.4-0.4,1,0,1.4l4.7,4.8c0.4,0.4,1,0.4,1.4,0c0.4-0.4,0.4-1,0-1.4l-3.1-3.1h16.8c0.5,0,1-0.4,1-1V17
		C26.6,16.4,26.1,16,25.6,16z"/>
</g>
</svg>
