<?xml version="1.0" encoding="utf-8"?>
<!-- Generator: Adobe Illustrator 18.0.0, SVG Export Plug-In . SVG Version: 6.00 Build 0)  -->
<!DOCTYPE svg PUBLIC "-//W3C//DTD SVG 1.1//EN" "http://www.w3.org/Graphics/SVG/1.1/DTD/svg11.dtd">
<svg version="1.1" id="Слой_1" xmlns="http://www.w3.org/2000/svg" xmlns:xlink="http://www.w3.org/1999/xlink" x="0px" y="0px"
	 viewBox="0 0 200 200" enable-background="new 0 0 200 200" xml:space="preserve">
<path fill="#1D1D1B" stroke="#000000" stroke-width="4" stroke-miterlimit="10" d="M196.6,100c0-53.3-43.3-96.6-96.6-96.6
	S3.4,46.7,3.4,100c0,27.2,11.4,51.8,29.6,69.4c0.4,0.6,0.9,1,1.5,1.4c17.2,16,40.2,25.8,65.5,25.8s48.3-9.8,65.5-25.8
	c0.6-0.4,1.1-0.8,1.5-1.4C185.2,151.8,196.6,127.2,196.6,100z M100,15.5c46.6,0,84.5,37.9,84.5,84.5c0,19.8-6.9,37.9-18.3,52.3
	c-5.2-16.9-20.2-30.1-40.5-36.2c11.1-8,18.3-21,18.3-35.6c0-24.3-19.8-44-44.1-44s-44.1,19.7-44.1,44c0,14.7,7.2,27.6,18.3,35.6
	c-20.3,6.1-35.2,19.3-40.5,36.2c-11.4-14.4-18.3-32.6-18.3-52.3C15.5,53.4,53.4,15.5,100,15.5z M68,80.5c0-17.6,14.3-31.9,32-31.9
	s32,14.3,32,31.9s-14.3,31.9-32,31.9S68,98.1,68,80.5z M43.9,163.1c1.8-22.1,25.3-38.5,56.1-38.5s54.3,16.4,56.1,38.5
	c-14.9,13.3-34.6,21.5-56.1,21.5S58.8,176.4,43.9,163.1z"/>
</svg>
