<?xml version="1.0" encoding="utf-8"?>
<!-- Generator: Adobe Illustrator 18.0.0, SVG Export Plug-In . SVG Version: 6.00 Build 0)  -->
<!DOCTYPE svg PUBLIC "-//W3C//DTD SVG 1.1//EN" "http://www.w3.org/Graphics/SVG/1.1/DTD/svg11.dtd">
<svg version="1.1" id="Icons" xmlns="http://www.w3.org/2000/svg" xmlns:xlink="http://www.w3.org/1999/xlink" x="0px" y="0px"
	 viewBox="0 0 70 70" enable-background="new 0 0 70 70" xml:space="preserve">
<path d="M41.9,5.9c0.9,0,1.9,0.1,2.8,0.2L34.3,16.5l3.3,15.9l15.9,3.3l10.4-10.4c0.8,5.4-0.7,10.7-4.4,14.4c-3,3-7.1,4.6-11.6,4.6
	c-2.1,0-4.2-0.3-6.2-1l-3.6-1.1L18.4,61.9c-1.4,1.4-3.2,2.1-5.1,2.1c-1.9,0-3.8-0.8-5.1-2.1C6.8,60.5,6,58.7,6,56.7
	c0-1.9,0.8-3.8,2.1-5.1l19.7-19.7l-1.1-3.6c-2.1-6.7-0.8-13.5,3.6-17.9C33.2,7.5,37.4,5.9,41.9,5.9 M41.9-0.3
	c-5.9,0-11.7,2.1-16,6.4c-6.2,6.2-7.8,15.5-5.1,24.1l-17,17c-5.2,5.2-5.2,13.7,0,19c2.6,2.6,6,3.9,9.5,3.9s6.9-1.3,9.5-3.9l17-17
	c2.7,0.9,5.4,1.3,8.1,1.3c5.9,0,11.7-2.1,15.9-6.4c7.7-7.7,8.4-19.9,2.5-29.9L51.5,29l-8.7-1.8L41,18.5L55.8,3.6
	C51.4,1.1,46.6-0.3,41.9-0.3L41.9-0.3z"/>
</svg>
